<?xml version="1.0" encoding="utf-8"?>
<!-- Generator: Adobe Illustrator 16.0.0, SVG Export Plug-In . SVG Version: 6.00 Build 0)  -->
<!DOCTYPE svg PUBLIC "-//W3C//DTD SVG 1.1//EN" "http://www.w3.org/Graphics/SVG/1.1/DTD/svg11.dtd">
<svg version="1.1" id="Capa_1" xmlns="http://www.w3.org/2000/svg" xmlns:xlink="http://www.w3.org/1999/xlink" x="0px" y="0px"
	 width="166.784px" height="36.791px" viewBox="0 0 166.784 36.791" enable-background="new 0 0 166.784 36.791"
	 xml:space="preserve">
<g>
	<path fill="#D3000F" d="M13.955,2.182c0.654-0.109,1.511-0.203,2.602-0.203c1.34,0,2.321,0.313,2.944,0.873
		c0.577,0.498,0.919,1.262,0.919,2.196c0,0.95-0.28,1.698-0.81,2.243c-0.717,0.764-1.885,1.153-3.209,1.153
		c-0.405,0-0.779-0.016-1.09-0.094v4.206h-1.355V2.182z M15.31,7.244c0.296,0.078,0.67,0.109,1.122,0.109
		c1.636,0,2.633-0.795,2.633-2.243c0-1.387-0.981-2.057-2.477-2.057c-0.592,0-1.044,0.047-1.277,0.109V7.244z"/>
	<path fill="#D3000F" d="M21.948,7.369c0-0.888-0.016-1.651-0.062-2.353h1.199l0.047,1.479h0.063c0.343-1.012,1.168-1.65,2.087-1.65
		c0.156,0,0.265,0.016,0.39,0.047v1.293c-0.14-0.031-0.281-0.047-0.467-0.047c-0.966,0-1.651,0.732-1.838,1.76
		c-0.031,0.188-0.063,0.406-0.063,0.639v4.02h-1.355V7.369z"/>
	<path fill="#D3000F" d="M33.712,8.725c0,2.789-1.932,4.004-3.754,4.004c-2.041,0-3.615-1.496-3.615-3.879
		c0-2.524,1.652-4.004,3.739-4.004C32.248,4.846,33.712,6.419,33.712,8.725z M27.729,8.803c0,1.651,0.95,2.897,2.29,2.897
		c1.309,0,2.291-1.23,2.291-2.929c0-1.277-0.639-2.898-2.259-2.898S27.729,7.369,27.729,8.803z"/>
	<path fill="#D3000F" d="M35.833,5.017l1.651,4.456c0.171,0.498,0.358,1.09,0.483,1.542h0.031c0.14-0.452,0.296-1.028,0.483-1.573
		l1.496-4.425h1.449l-2.056,5.375c-0.981,2.586-1.651,3.91-2.586,4.721c-0.67,0.592-1.34,0.825-1.682,0.888l-0.343-1.152
		c0.343-0.109,0.794-0.328,1.199-0.67c0.374-0.297,0.841-0.826,1.153-1.527c0.063-0.141,0.109-0.249,0.109-0.327
		c0-0.077-0.031-0.187-0.094-0.358l-2.789-6.948H35.833z"/>
	<path fill="#D3000F" d="M43.281,9.036c0.031,1.854,1.215,2.617,2.586,2.617c0.981,0,1.574-0.171,2.087-0.39l0.234,0.982
		c-0.483,0.218-1.309,0.467-2.508,0.467c-2.321,0-3.708-1.527-3.708-3.801c0-2.275,1.34-4.066,3.537-4.066
		c2.461,0,3.116,2.165,3.116,3.552c0,0.28-0.031,0.499-0.046,0.639H43.281z M47.3,8.055c0.016-0.873-0.358-2.228-1.9-2.228
		c-1.387,0-1.994,1.277-2.104,2.228H47.3z"/>
	<path fill="#D3000F" d="M55.699,12.277c-0.358,0.187-1.153,0.436-2.166,0.436c-2.274,0-3.755-1.543-3.755-3.848
		c0-2.322,1.589-4.004,4.051-4.004c0.81,0,1.527,0.202,1.901,0.389l-0.312,1.061c-0.327-0.188-0.841-0.359-1.589-0.359
		c-1.729,0-2.664,1.277-2.664,2.852c0,1.744,1.122,2.82,2.617,2.82c0.779,0,1.293-0.203,1.683-0.375L55.699,12.277z"/>
	<path fill="#D3000F" d="M59.159,2.852v2.165h1.963v1.044h-1.963v4.066c0,0.935,0.265,1.465,1.028,1.465
		c0.358,0,0.623-0.047,0.794-0.094l0.063,1.027c-0.265,0.109-0.686,0.188-1.215,0.188c-0.639,0-1.153-0.203-1.48-0.576
		c-0.39-0.405-0.53-1.075-0.53-1.963V6.061H56.65V5.017h1.168V3.209L59.159,2.852z"/>
	<path fill="#D3000F" d="M69.395,8.725c0,2.789-1.932,4.004-3.754,4.004c-2.041,0-3.615-1.496-3.615-3.879
		c0-2.524,1.651-4.004,3.739-4.004C67.931,4.846,69.395,6.419,69.395,8.725z M63.413,8.803c0,1.651,0.95,2.897,2.29,2.897
		c1.309,0,2.291-1.23,2.291-2.929c0-1.277-0.639-2.898-2.259-2.898S63.413,7.369,63.413,8.803z"/>
	<path fill="#D3000F" d="M80.942,1.496v9.113c0,0.67,0.016,1.434,0.063,1.947h-1.231l-0.063-1.309h-0.03
		c-0.422,0.842-1.34,1.48-2.571,1.48c-1.823,0-3.225-1.543-3.225-3.832c-0.015-2.509,1.542-4.051,3.38-4.051
		c1.153,0,1.932,0.545,2.275,1.152h0.031V1.496H80.942z M79.571,8.086c0-0.172-0.016-0.405-0.063-0.576
		c-0.203-0.873-0.951-1.59-1.979-1.59c-1.418,0-2.26,1.246-2.26,2.914c0,1.526,0.748,2.789,2.229,2.789
		c0.919,0,1.76-0.608,2.01-1.637c0.047-0.187,0.063-0.373,0.063-0.592V8.086z"/>
	<path fill="#D3000F" d="M83.981,9.036c0.031,1.854,1.215,2.617,2.586,2.617c0.981,0,1.574-0.171,2.088-0.39l0.233,0.982
		c-0.483,0.218-1.309,0.467-2.509,0.467c-2.32,0-3.707-1.527-3.707-3.801c0-2.275,1.34-4.066,3.536-4.066
		c2.462,0,3.116,2.165,3.116,3.552c0,0.28-0.031,0.499-0.047,0.639H83.981z M88.001,8.055c0.016-0.873-0.358-2.228-1.9-2.228
		c-1.387,0-1.994,1.277-2.104,2.228H88.001z"/>
	<path fill="#D3000F" d="M95.73,2.057v10.5h-1.355v-10.5H95.73z"/>
	<path fill="#D3000F" d="M98.208,7.058c0-0.778-0.016-1.417-0.063-2.041h1.215l0.078,1.247h0.031
		c0.374-0.717,1.246-1.418,2.493-1.418c1.044,0,2.664,0.623,2.664,3.209v4.502h-1.371V8.211c0-1.216-0.452-2.229-1.745-2.229
		c-0.903,0-1.604,0.639-1.838,1.402c-0.063,0.172-0.094,0.405-0.094,0.639v4.533h-1.371V7.058z"/>
	<path fill="#D3000F" d="M112.231,12.277c-0.359,0.187-1.153,0.436-2.166,0.436c-2.274,0-3.755-1.543-3.755-3.848
		c0-2.322,1.589-4.004,4.051-4.004c0.81,0,1.526,0.202,1.901,0.389l-0.313,1.061c-0.327-0.188-0.841-0.359-1.589-0.359
		c-1.729,0-2.664,1.277-2.664,2.852c0,1.744,1.122,2.82,2.617,2.82c0.779,0,1.294-0.203,1.683-0.375L112.231,12.277z"/>
	<path fill="#D3000F" d="M113.837,1.496h1.371v11.061h-1.371V1.496z"/>
	<path fill="#D3000F" d="M123.823,10.5c0,0.779,0.016,1.465,0.063,2.057h-1.215l-0.078-1.23h-0.031
		c-0.357,0.607-1.152,1.402-2.492,1.402c-1.184,0-2.602-0.654-2.602-3.303V5.017h1.371v4.175c0,1.434,0.436,2.4,1.682,2.4
		c0.92,0,1.559-0.639,1.808-1.247c0.078-0.202,0.124-0.452,0.124-0.7V5.017h1.371V10.5z"/>
	<path fill="#D3000F" d="M125.913,11.154c0.405,0.266,1.122,0.546,1.807,0.546c0.998,0,1.465-0.499,1.465-1.122
		c0-0.654-0.389-1.012-1.402-1.387c-1.355-0.482-1.994-1.23-1.994-2.134c0-1.216,0.982-2.212,2.602-2.212
		c0.764,0,1.434,0.218,1.854,0.467l-0.343,0.998c-0.296-0.188-0.842-0.438-1.542-0.438c-0.811,0-1.263,0.468-1.263,1.029
		c0,0.623,0.452,0.903,1.434,1.277c1.309,0.498,1.979,1.152,1.979,2.274c0,1.324-1.027,2.259-2.819,2.259
		c-0.825,0-1.589-0.203-2.119-0.514L125.913,11.154z"/>
	<path fill="#D3000F" d="M133.798,2.898c0.016,0.467-0.328,0.841-0.873,0.841c-0.482,0-0.826-0.374-0.826-0.841
		c0-0.483,0.359-0.857,0.857-0.857C133.47,2.041,133.798,2.415,133.798,2.898z M132.271,12.557v-7.54h1.371v7.54H132.271z"/>
	<path fill="#D3000F" d="M142.741,8.725c0,2.789-1.932,4.004-3.755,4.004c-2.041,0-3.614-1.496-3.614-3.879
		c0-2.524,1.65-4.004,3.738-4.004C141.276,4.846,142.741,6.419,142.741,8.725z M136.759,8.803c0,1.651,0.949,2.897,2.289,2.897
		c1.309,0,2.291-1.23,2.291-2.929c0-1.277-0.639-2.898-2.26-2.898C137.46,5.873,136.759,7.369,136.759,8.803z M141.104,1.761
		l-1.9,2.228h-0.981l1.371-2.228H141.104z"/>
	<path fill="#D3000F" d="M144.472,7.058c0-0.778-0.016-1.417-0.063-2.041h1.215l0.078,1.247h0.031
		c0.374-0.717,1.246-1.418,2.493-1.418c1.044,0,2.664,0.623,2.664,3.209v4.502h-1.371V8.211c0-1.216-0.452-2.229-1.745-2.229
		c-0.903,0-1.604,0.639-1.838,1.402c-0.063,0.172-0.094,0.405-0.094,0.639v4.533h-1.371V7.058z"/>
	<path fill="#D3000F" d="M152.231,14.473c0.343-0.918,0.764-2.586,0.936-3.723l1.526-0.156c-0.358,1.324-1.044,3.054-1.479,3.786
		L152.231,14.473z"/>
	<path fill="#D3000F" d="M19.392,26.333H15.31v3.786h4.549v1.137h-5.904v-10.5h5.671v1.137H15.31v3.318h4.082V26.333z"/>
	<path fill="#D3000F" d="M28.024,20.195v9.113c0,0.67,0.016,1.434,0.063,1.947h-1.231l-0.063-1.309h-0.031
		c-0.421,0.842-1.34,1.48-2.571,1.48c-1.823,0-3.225-1.543-3.225-3.833c-0.015-2.509,1.542-4.051,3.381-4.051
		c1.153,0,1.932,0.546,2.274,1.153h0.031v-4.502H28.024z M26.653,26.785c0-0.172-0.016-0.406-0.062-0.577
		c-0.203-0.872-0.951-1.589-1.979-1.589c-1.417,0-2.259,1.246-2.259,2.913c0,1.526,0.748,2.789,2.228,2.789
		c0.919,0,1.76-0.608,2.01-1.636c0.046-0.188,0.062-0.374,0.062-0.592V26.785z"/>
	<path fill="#D3000F" d="M36.61,29.199c0,0.779,0.016,1.465,0.063,2.057h-1.215l-0.078-1.23h-0.031
		c-0.358,0.607-1.153,1.402-2.493,1.402c-1.184,0-2.602-0.654-2.602-3.303v-4.41h1.371v4.176c0,1.434,0.437,2.399,1.683,2.399
		c0.919,0,1.558-0.639,1.807-1.247c0.078-0.201,0.125-0.451,0.125-0.7v-4.628h1.371V29.199z"/>
	<path fill="#D3000F" d="M44.261,30.976c-0.358,0.187-1.153,0.437-2.166,0.437c-2.274,0-3.755-1.543-3.755-3.849
		c0-2.321,1.589-4.004,4.051-4.004c0.81,0,1.527,0.202,1.901,0.39l-0.312,1.06c-0.328-0.187-0.841-0.358-1.589-0.358
		c-1.729,0-2.664,1.277-2.664,2.852c0,1.744,1.122,2.819,2.617,2.819c0.779,0,1.293-0.202,1.683-0.374L44.261,30.976z"/>
	<path fill="#D3000F" d="M50.042,31.256l-0.109-0.95h-0.047c-0.42,0.592-1.231,1.122-2.306,1.122c-1.527,0-2.306-1.076-2.306-2.166
		c0-1.822,1.62-2.82,4.533-2.805v-0.155c0-0.623-0.171-1.745-1.713-1.745c-0.701,0-1.434,0.219-1.963,0.561l-0.312-0.903
		c0.624-0.405,1.527-0.67,2.478-0.67c2.306,0,2.866,1.573,2.866,3.085v2.82c0,0.654,0.031,1.293,0.125,1.807H50.042z M49.84,27.408
		c-1.496-0.031-3.194,0.233-3.194,1.697c0,0.889,0.592,1.309,1.293,1.309c0.981,0,1.604-0.623,1.823-1.262
		c0.046-0.14,0.078-0.296,0.078-0.436V27.408z"/>
	<path fill="#D3000F" d="M58.752,30.976c-0.358,0.187-1.153,0.437-2.166,0.437c-2.274,0-3.755-1.543-3.755-3.849
		c0-2.321,1.589-4.004,4.051-4.004c0.81,0,1.527,0.202,1.901,0.39l-0.312,1.06c-0.328-0.187-0.841-0.358-1.589-0.358
		c-1.729,0-2.664,1.277-2.664,2.852c0,1.744,1.122,2.819,2.617,2.819c0.779,0,1.293-0.202,1.683-0.374L58.752,30.976z"/>
	<path fill="#D3000F" d="M61.885,21.597c0.016,0.468-0.327,0.841-0.873,0.841c-0.483,0-0.826-0.373-0.826-0.841
		c0-0.483,0.358-0.856,0.857-0.856C61.558,20.74,61.885,21.113,61.885,21.597z M60.358,31.256v-7.541h1.371v7.541H60.358z"/>
	<path fill="#D3000F" d="M70.829,27.424c0,2.788-1.932,4.004-3.754,4.004c-2.041,0-3.615-1.496-3.615-3.88
		c0-2.523,1.651-4.004,3.739-4.004C69.364,23.544,70.829,25.117,70.829,27.424z M64.846,27.502c0,1.65,0.95,2.896,2.29,2.896
		c1.309,0,2.291-1.23,2.291-2.928c0-1.278-0.639-2.898-2.259-2.898S64.846,26.068,64.846,27.502z M69.193,20.459l-1.901,2.229
		h-0.981l1.371-2.229H69.193z"/>
	<path fill="#D3000F" d="M72.56,25.756c0-0.778-0.016-1.417-0.062-2.041h1.215l0.078,1.247h0.031
		c0.374-0.717,1.246-1.418,2.493-1.418c1.044,0,2.664,0.624,2.664,3.21v4.502h-1.371v-4.347c0-1.216-0.452-2.228-1.745-2.228
		c-0.903,0-1.604,0.639-1.838,1.402c-0.062,0.171-0.093,0.404-0.093,0.639v4.533H72.56V25.756z"/>
	<path fill="#D3000F" d="M85.009,23.715l1.652,4.457c0.171,0.498,0.357,1.09,0.482,1.541h0.031c0.141-0.451,0.296-1.027,0.482-1.572
		l1.496-4.426h1.449l-2.057,5.375c-0.981,2.586-1.651,3.911-2.586,4.721c-0.67,0.592-1.34,0.826-1.683,0.889l-0.343-1.153
		c0.343-0.108,0.795-0.327,1.199-0.67c0.374-0.296,0.842-0.825,1.152-1.526c0.063-0.141,0.109-0.25,0.109-0.328
		c0-0.077-0.031-0.186-0.094-0.357l-2.788-6.949H85.009z"/>
	<path fill="#D3000F" d="M95.013,29.604c0.607,0.374,1.496,0.686,2.431,0.686c1.387,0,2.196-0.732,2.196-1.792
		c0-0.981-0.561-1.542-1.979-2.088c-1.713-0.607-2.772-1.495-2.772-2.975c0-1.637,1.355-2.852,3.396-2.852
		c1.076,0,1.854,0.25,2.322,0.514l-0.374,1.106c-0.343-0.187-1.044-0.499-1.994-0.499c-1.434,0-1.979,0.857-1.979,1.574
		c0,0.981,0.64,1.465,2.088,2.025c1.776,0.686,2.68,1.543,2.68,3.084c0,1.621-1.199,3.023-3.676,3.023
		c-1.014,0-2.119-0.297-2.68-0.67L95.013,29.604z"/>
	<path fill="#D3000F" d="M109.753,27.424c0,2.788-1.932,4.004-3.754,4.004c-2.041,0-3.615-1.496-3.615-3.88
		c0-2.523,1.652-4.004,3.739-4.004C108.288,23.544,109.753,25.117,109.753,27.424z M103.771,27.502c0,1.65,0.95,2.896,2.29,2.896
		c1.309,0,2.29-1.23,2.29-2.928c0-1.278-0.639-2.898-2.259-2.898S103.771,26.068,103.771,27.502z"/>
	<path fill="#D3000F" d="M111.483,20.195h1.371v11.061h-1.371V20.195z"/>
	<path fill="#D3000F" d="M116.688,21.597c0.016,0.468-0.328,0.841-0.873,0.841c-0.482,0-0.826-0.373-0.826-0.841
		c0-0.483,0.359-0.856,0.857-0.856C116.36,20.74,116.688,21.113,116.688,21.597z M115.161,31.256v-7.541h1.371v7.541H115.161z"/>
	<path fill="#D3000F" d="M125.319,20.195v9.113c0,0.67,0.016,1.434,0.063,1.947h-1.23l-0.063-1.309h-0.031
		c-0.421,0.842-1.34,1.48-2.57,1.48c-1.823,0-3.226-1.543-3.226-3.833c-0.015-2.509,1.542-4.051,3.381-4.051
		c1.153,0,1.932,0.546,2.274,1.153h0.031v-4.502H125.319z M123.948,26.785c0-0.172-0.016-0.406-0.063-0.577
		c-0.202-0.872-0.95-1.589-1.979-1.589c-1.418,0-2.259,1.246-2.259,2.913c0,1.526,0.748,2.789,2.228,2.789
		c0.92,0,1.761-0.608,2.01-1.636c0.047-0.188,0.063-0.374,0.063-0.592V26.785z"/>
	<path fill="#D3000F" d="M131.771,31.256l-0.108-0.95h-0.047c-0.421,0.592-1.231,1.122-2.306,1.122
		c-1.527,0-2.306-1.076-2.306-2.166c0-1.822,1.62-2.82,4.533-2.805v-0.155c0-0.623-0.171-1.745-1.714-1.745
		c-0.701,0-1.434,0.219-1.963,0.561l-0.312-0.903c0.624-0.405,1.526-0.67,2.478-0.67c2.306,0,2.866,1.573,2.866,3.085v2.82
		c0,0.654,0.031,1.293,0.125,1.807H131.771z M131.568,27.408c-1.495-0.031-3.194,0.233-3.194,1.697c0,0.889,0.593,1.309,1.294,1.309
		c0.981,0,1.604-0.623,1.823-1.262c0.046-0.14,0.077-0.296,0.077-0.436V27.408z"/>
	<path fill="#D3000F" d="M135.106,26.068c0-0.889-0.016-1.652-0.063-2.354h1.199l0.047,1.48h0.063
		c0.344-1.012,1.169-1.651,2.088-1.651c0.156,0,0.266,0.016,0.39,0.047v1.293c-0.14-0.03-0.28-0.046-0.468-0.046
		c-0.966,0-1.65,0.731-1.838,1.76c-0.031,0.188-0.063,0.405-0.063,0.639v4.02h-1.355V26.068z"/>
	<path fill="#D3000F" d="M141.791,21.597c0.016,0.468-0.327,0.841-0.872,0.841c-0.483,0-0.826-0.373-0.826-0.841
		c0-0.483,0.358-0.856,0.857-0.856C141.464,20.74,141.791,21.113,141.791,21.597z M140.265,31.256v-7.541h1.371v7.541H140.265z"/>
	<path fill="#D3000F" d="M150.423,20.195v9.113c0,0.67,0.016,1.434,0.063,1.947h-1.231l-0.063-1.309h-0.03
		c-0.422,0.842-1.34,1.48-2.571,1.48c-1.823,0-3.226-1.543-3.226-3.833c-0.015-2.509,1.543-4.051,3.381-4.051
		c1.153,0,1.932,0.546,2.275,1.153h0.031v-4.502H150.423z M149.052,26.785c0-0.172-0.016-0.406-0.063-0.577
		c-0.203-0.872-0.951-1.589-1.979-1.589c-1.418,0-2.26,1.246-2.26,2.913c0,1.526,0.748,2.789,2.229,2.789
		c0.919,0,1.76-0.608,2.01-1.636c0.047-0.188,0.063-0.374,0.063-0.592V26.785z"/>
	<path fill="#D3000F" d="M156.874,31.256l-0.109-0.95h-0.047c-0.42,0.592-1.23,1.122-2.305,1.122c-1.527,0-2.307-1.076-2.307-2.166
		c0-1.822,1.621-2.82,4.533-2.805v-0.155c0-0.623-0.171-1.745-1.713-1.745c-0.701,0-1.434,0.219-1.963,0.561l-0.313-0.903
		c0.624-0.405,1.527-0.67,2.479-0.67c2.305,0,2.865,1.573,2.865,3.085v2.82c0,0.654,0.031,1.293,0.125,1.807H156.874z
		 M156.671,27.408c-1.495-0.031-3.193,0.233-3.193,1.697c0,0.889,0.592,1.309,1.293,1.309c0.982,0,1.605-0.623,1.823-1.262
		c0.046-0.14,0.077-0.296,0.077-0.436V27.408z"/>
	<path fill="#D3000F" d="M166.722,20.195v9.113c0,0.67,0.016,1.434,0.063,1.947h-1.231l-0.063-1.309h-0.03
		c-0.422,0.842-1.34,1.48-2.571,1.48c-1.823,0-3.226-1.543-3.226-3.833c-0.015-2.509,1.543-4.051,3.381-4.051
		c1.153,0,1.932,0.546,2.275,1.153h0.031v-4.502H166.722z M165.351,26.785c0-0.172-0.016-0.406-0.063-0.577
		c-0.203-0.872-0.951-1.589-1.979-1.589c-1.418,0-2.26,1.246-2.26,2.913c0,1.526,0.748,2.789,2.229,2.789
		c0.919,0,1.76-0.608,2.01-1.636c0.047-0.188,0.063-0.374,0.063-0.592V26.785z"/>
</g>
<g>
	<line fill="#D3000F" x1="1.25" y1="1.25" x2="1.25" y2="35.541"/>
	<path fill="#D3000F" d="M1.25,36.791c-0.69,0-1.25-0.56-1.25-1.25V1.25C0,0.56,0.56,0,1.25,0S2.5,0.56,2.5,1.25v34.291
		C2.5,36.231,1.94,36.791,1.25,36.791z"/>
</g>
</svg>
