<?xml version="1.0" encoding="utf-8"?>
<!-- Generator: Adobe Illustrator 16.0.0, SVG Export Plug-In . SVG Version: 6.00 Build 0)  -->
<!DOCTYPE svg PUBLIC "-//W3C//DTD SVG 1.1//EN" "http://www.w3.org/Graphics/SVG/1.1/DTD/svg11.dtd">
<svg version="1.1" id="Capa_1" xmlns="http://www.w3.org/2000/svg" xmlns:xlink="http://www.w3.org/1999/xlink" x="0px" y="0px"
	 width="49.172px" height="49.264px" viewBox="0 0 49.172 49.264" enable-background="new 0 0 49.172 49.264" xml:space="preserve">
<g>
	<path fill="#D3000F" d="M12.937,8.474c-1.961,0-3.652-1.332-4.115-3.24c-0.267-1.099-0.09-2.236,0.5-3.201
		C9.91,1.065,10.84,0.387,11.941,0.12c0.328-0.08,0.664-0.12,1-0.12c1.959,0,3.65,1.332,4.113,3.238
		c0.551,2.271-0.849,4.565-3.118,5.116C13.607,8.434,13.271,8.474,12.937,8.474z"/>
	<path fill="#D3000F" d="M32.953,7.124c-0.496-2.047-1.59-3.547-3.249-4.46c-4.384-2.41-11.327-0.095-11.396-0.071l-0.342-1.002
		c0.303-0.104,7.461-2.487,12.247,0.146c1.932,1.062,3.199,2.791,3.769,5.14L32.953,7.124z"/>
	<path fill="#D3000F" d="M2.322,23.032c-1.503-1.891-2.089-3.952-1.741-6.129c0.861-5.395,7.138-9.582,7.404-9.758L8.568,8.03
		c-0.063,0.04-6.156,4.11-6.942,9.043c-0.298,1.869,0.216,3.652,1.526,5.301L2.322,23.032z"/>
	<path fill="#D3000F" d="M44.737,17.222c-1.875,0-3.504-1.205-4.053-3c-0.68-2.236,0.584-4.607,2.818-5.287
		c0.402-0.123,0.818-0.186,1.236-0.186c1.875,0,3.502,1.207,4.051,3.003c0.33,1.082,0.217,2.228-0.314,3.227
		c-0.533,0.999-1.422,1.729-2.506,2.06C45.569,17.16,45.153,17.222,44.737,17.222z"/>
	<path fill="#D3000F" d="M43.323,34.147l-0.309-1.014c2.014-0.613,3.447-1.791,4.262-3.499c2.15-4.507-0.559-11.315-0.588-11.384
		l0.982-0.397c0.119,0.296,2.914,7.304,0.563,12.234C47.286,32.077,45.634,33.442,43.323,34.147z"/>
	<path fill="#D3000F" d="M40.696,8.842c-0.043-0.06-4.459-5.907-9.429-6.406c-1.883-0.184-3.633,0.427-5.203,1.83l-0.705-0.789
		c1.8-1.61,3.826-2.314,6.018-2.095c5.435,0.549,9.978,6.571,10.169,6.827L40.696,8.842z"/>
	<path fill="#D3000F" d="M37.173,48.89c-1.847,0-3.468-1.185-4.033-2.947c-0.344-1.076-0.248-2.223,0.27-3.229
		c0.519-1.007,1.397-1.751,2.475-2.096c0.42-0.135,0.855-0.203,1.292-0.203c1.848,0,3.469,1.184,4.031,2.945
		c0.346,1.076,0.25,2.225-0.268,3.23s-1.396,1.75-2.475,2.095C38.046,48.821,37.612,48.89,37.173,48.89z"/>
	<path fill="#D3000F" d="M24.589,49.264c-1.52,0-3.072-0.231-4.467-0.872c-2.002-0.92-3.392-2.553-4.129-4.854l1.01-0.322
		c0.642,2.005,1.84,3.422,3.561,4.213c4.547,2.088,11.305-0.722,11.373-0.75l0.412,0.975C32.138,47.743,28.476,49.264,24.589,49.264
		z"/>
	<path fill="#D3000F" d="M41.907,41.393l-0.645-0.84c0.057-0.045,5.842-4.544,6.27-9.519c0.162-1.887-0.479-3.629-1.904-5.178
		l0.779-0.717c1.637,1.777,2.369,3.792,2.18,5.988C48.118,36.569,42.159,41.198,41.907,41.393z"/>
	<path fill="#D3000F" d="M4.236,39.984c-1.902,0-3.581-1.282-4.084-3.118c-0.299-1.09-0.154-2.232,0.406-3.215
		c0.561-0.983,1.471-1.689,2.563-1.988c0.366-0.1,0.742-0.15,1.119-0.15c1.902,0,3.581,1.281,4.082,3.117
		c0.617,2.252-0.713,4.586-2.965,5.203C4.99,39.934,4.613,39.984,4.236,39.984z"/>
	<path fill="#D3000F" d="M1.444,30.798c-0.111-0.299-2.704-7.383-0.215-12.245c1.005-1.962,2.696-3.28,5.026-3.919l0.279,1.021
		c-2.031,0.557-3.5,1.693-4.363,3.38c-2.279,4.452,0.238,11.324,0.265,11.394L1.444,30.798z"/>
	<path fill="#D3000F" d="M18.251,47.794c-0.326,0-0.656-0.021-0.99-0.065c-5.417-0.702-9.786-6.853-9.97-7.114l0.866-0.607
		c0.043,0.061,4.289,6.031,9.242,6.672c1.881,0.246,3.646-0.323,5.253-1.681l0.684,0.809C21.773,47.128,20.066,47.794,18.251,47.794
		z"/>
</g>
</svg>
