<?xml version="1.0" encoding="utf-8"?>
<!-- Generator: Adobe Illustrator 16.0.0, SVG Export Plug-In . SVG Version: 6.00 Build 0)  -->
<!DOCTYPE svg PUBLIC "-//W3C//DTD SVG 1.1//EN" "http://www.w3.org/Graphics/SVG/1.1/DTD/svg11.dtd">
<svg version="1.1" id="Capa_1" xmlns="http://www.w3.org/2000/svg" xmlns:xlink="http://www.w3.org/1999/xlink" x="0px" y="0px"
	 width="90.75px" height="113.565px" viewBox="0 0 90.75 113.565" enable-background="new 0 0 90.75 113.565" xml:space="preserve">
<g>
	<g>
		<path fill="#D3000F" d="M27.534,89.35c0,1.367-0.23,2.637-0.688,3.816c-0.449,1.178-1.107,2.193-1.953,3.037
			c-0.84,0.82-1.869,1.486-3.073,1.971c-1.202,0.473-2.521,0.701-3.991,0.701h-6.994v10.658H5.158v-29.82h12.536
			c1.545,0,2.936,0.252,4.162,0.686c1.25,0.469,2.283,1.121,3.098,1.955c0.838,0.809,1.471,1.826,1.908,3.018
			C27.317,86.566,27.534,87.902,27.534,89.35z M10.834,84.445v9.791h6.823c1.317,0,2.643-0.729,3.375-1.592
			c0.63-0.758,1.11-1.773,1.11-3.295c0-1.529-0.488-2.539-1.11-3.313c-0.829-1.01-2.058-1.592-3.375-1.592H10.834z"/>
		<path fill="#D3000F" d="M36.502,109.533h-5.67v-29.82h5.67V109.533z"/>
		<path fill="#D3000F" d="M63.039,109.533H40.97v-29.82h21.784v4.732H46.646v7.484h13.734v4.707H46.646v8.174h16.393V109.533z"/>
		<path fill="#D3000F" d="M77.209,78.898c1.719,0,3.25,0.225,4.59,0.693c1.309,0.436,2.449,1.057,3.357,1.801
			c0.916,0.748,1.664,1.643,2.225,2.596c0.545,0.992,0.904,2.008,1.082,3.068l-5.502,1.379c-0.078-1.24-0.619-2.25-1.623-3.064
			c-1.012-0.809-2.383-1.207-4.129-1.207c-0.736,0-1.457,0.088-2.156,0.207c-0.699,0.152-1.33,0.357-1.873,0.65
			c-0.541,0.299-0.984,0.652-1.297,1.064c-0.303,0.451-0.465,0.955-0.465,1.516c0,1.041,0.521,1.789,1.572,2.295
			c1.043,0.496,2.697,0.988,5.002,1.453c1.77,0.35,3.363,0.734,4.771,1.156c1.416,0.463,2.633,1.018,3.633,1.703
			c1.004,0.697,1.771,1.549,2.334,2.582c0.535,1.037,0.801,2.305,0.801,3.822c0,1.424-0.275,2.734-0.854,3.898
			c-0.574,1.139-1.396,2.143-2.471,2.967c-1.068,0.797-2.377,1.426-3.875,1.842c-1.523,0.449-3.232,0.658-5.123,0.658
			c-1.346,0-2.672-0.176-4.008-0.52c-1.336-0.342-2.566-0.871-3.67-1.57c-1.127-0.695-2.074-1.586-2.863-2.666
			c-0.783-1.111-1.291-2.387-1.531-3.887c1.102-0.24,2.148-0.52,3.17-0.758c1.023-0.273,1.799-0.469,2.371-0.617
			c0.064,0.836,0.293,1.543,0.703,2.168c0.43,0.582,0.947,1.088,1.553,1.457c0.621,0.406,1.299,0.684,2.045,0.891
			c0.756,0.213,1.494,0.297,2.23,0.297c0.805,0,1.602-0.059,2.408-0.205c0.811-0.146,1.521-0.371,2.141-0.707
			c0.635-0.33,1.143-0.738,1.525-1.236c0.381-0.506,0.6-1.129,0.6-1.846c0-0.463-0.121-0.875-0.332-1.268
			c-0.23-0.416-0.602-0.783-1.146-1.121c-0.541-0.328-1.256-0.613-2.156-0.906c-0.918-0.299-2.045-0.553-3.424-0.828
			c-1.367-0.246-2.732-0.568-4.066-0.945c-1.318-0.41-2.5-0.939-3.531-1.594c-1.035-0.664-1.881-1.529-2.525-2.574
			c-0.633-1.039-0.955-2.377-0.955-3.969c0-1.314,0.262-2.459,0.826-3.547c0.537-1.053,1.309-1.959,2.307-2.705
			c1.006-0.777,2.213-1.354,3.611-1.801C73.895,79.109,75.467,78.898,77.209,78.898z"/>
	</g>
	<path fill="#D3000F" d="M61.119,22.713c-1.516-1.873-4.807-2.46-7.439-2.951c-1.287-0.225-3.256-0.582-3.463-0.926
		c-0.012-0.295,0.521-0.799,1.031-1.299c0.701-0.641,1.576-1.48,2.285-2.693c1.314-2.203,2.004-6.867-1.432-10.737
		c-1.609-1.853-4.219-2.978-6.816-2.978c-2.479,0-4.772,0.979-6.688,2.865c-3.85,3.797-2.76,8.622-1.512,10.875
		c0.762,1.364,1.629,2.136,2.252,2.732c0.681,0.586,0.903,0.813,0.854,1.121c-0.221,0.428-2.191,0.834-3.509,1.127
		c-2.22,0.453-4.731,0.99-6.122,2.207c-3.922,3.408-5.219,21.631-3.284,24.686c0.64,1.033,1.898,1.708,3.161,1.708
		c1.035,0,1.949-0.448,2.573-1.221c1.026-1.307,1.862-5.04,2.515-7.562c-0.271,2.714-0.683,7.2-1.055,10.346
		c-1.087,9.078-2.223,18.515-1.729,20.962c0.426,2.078,2.395,3.6,4.682,3.6c1.914,0,3.618-1.1,4.521-2.887
		c2.231-4.35,2.815-10.084,3.185-13.869c0.07-0.744,0.156-1.549,0.238-2.23c0.242,1.156,0.476,2.707,0.705,4.137
		c0.699,4.342,1.568,9.744,2.803,12.164c0.889,1.703,2.52,2.723,4.41,2.723c2.275,0,4.188-1.5,4.643-3.627
		c0.455-2.232-0.471-11.273-1.365-20.039c-0.313-2.98-1.037-8.016-1.293-10.847c0.551,2.161,1.602,5.991,2.455,7.136
		c0.625,0.84,1.533,1.277,2.598,1.277c1.828,0,3.521-1.383,3.746-3.084C64.898,39.409,65.205,27.805,61.119,22.713z M31.483,23.148
		c1.108-0.98,3.449-1.488,5.504-1.907c2.303-0.497,4.036-0.861,4.51-1.887c2.061-0.125,4.326,0.199,4.326,0.199
		s1.104-7.107-0.193-7.901c-0.847-0.503-2.69,1.774-4.813-0.542c-0.992-1.064-0.71-3.291,0.558-4.178
		c2.271-1.602,3.546,0.805,4.371,0.028c0.559-0.488,0.613-2.479,0.523-4.345c1.848,0.257,3.633,1.146,4.771,2.418
		c3.268,3.723,2.037,7.799,1.275,9.061c-0.609,1.064-1.381,1.796-2.063,2.42c-0.789,0.779-1.49,1.45-1.463,2.357
		c0.016,0.387,0.172,0.709,0.453,0.979c-1.713-0.045-3.26-0.297-3.26-0.297s-0.925,7.221,0.432,7.805
		c0.822,0.367,2.096-1.483,4.324-0.123c1.221,0.768,2.006,3.271,0.199,4.64c-2.26,1.726-3.67-0.429-4.666,0.104
		c-1.08,0.577-0.236,7.501-0.236,7.501s6.34-1.053,7.787,0.801c0.131,0.168,0.227,0.292,0.318,0.439
		c0.203,2.434,0.535,5.801,1.01,10.376c0.096,1.044,0.215,2.11,0.324,3.204c-0.479-0.047-1.002,0.12-1.555,0.611
		c-1.527,1.324,0.275,3.232-0.797,4.875c-0.73,1.178-3.475,1.197-5.418,1.051c-0.084-0.434-0.15-0.904-0.23-1.324
		c-0.52-3.211-0.801-4.933-1.113-5.83c-0.102-0.844-0.455-1.451-0.813-1.69c-0.847-0.512-2.675,1.749-4.82-0.55
		c-0.976-1.055-0.702-3.287,0.571-4.17c2.279-1.6,3.538,0.797,4.379,0.02c1.061-0.939,0.271-7.808,0.271-7.808
		s-6.499,0.782-7.791-0.651c-1.337-1.424,0.302-3.578-0.755-4.84c-0.596-0.699-1.798-1.396-3.166-0.211
		c-1.522,1.326,0.291,3.233-0.79,4.882c-0.711,1.144-3.62,1.195-5.624,1.094C27.975,33.595,29.277,25.062,31.483,23.148z
		 M40.69,71.037c-0.683,1.338-1.875,2.09-3.266,2.09c-1.39,0-2.961-0.811-3.287-2.436c-0.183-0.904-0.08-3.141,0.16-6
		c0.027,0.047,0.075,0.096,0.107,0.17c1.125,1.467,2.822,0.779,3.334,0.121c1.398-1.768-0.849-3.537,0.938-5.037
		c0.905-0.744,3.142-0.793,4.881-0.73C43.182,62.801,42.518,67.479,40.69,71.037z M62.65,45.238
		c-0.131,0.993-1.221,1.858-2.328,1.858c-0.432,0-1.012-0.141-1.475-0.721c-0.311-0.43-0.59-1.02-0.867-1.728
		c0.814-1.655-0.979-3.267,0.67-4.636c0.842-0.7,2.805-0.818,4.475-0.745C63.053,41.555,62.871,43.658,62.65,45.238z"/>
</g>
</svg>
