<?xml version="1.0" encoding="utf-8"?>
<!-- Generator: Adobe Illustrator 16.0.0, SVG Export Plug-In . SVG Version: 6.00 Build 0)  -->
<!DOCTYPE svg PUBLIC "-//W3C//DTD SVG 1.1//EN" "http://www.w3.org/Graphics/SVG/1.1/DTD/svg11.dtd">
<svg version="1.1" id="Capa_1" xmlns="http://www.w3.org/2000/svg" xmlns:xlink="http://www.w3.org/1999/xlink" x="0px" y="0px"
	 width="54.002px" height="37.876px" viewBox="0 0 54.002 37.876" enable-background="new 0 0 54.002 37.876" xml:space="preserve">
<g>
	<path fill="#D3000F" d="M27.384,36.329l-0.845-0.626c-0.051-0.038-5.166-3.763-12.685-3.763c-4.432,0-8.824,1.276-13.055,3.793
		L0,36.209V4.229L0.214,4.07C0.437,3.904,5.776,0,13.66,0c4.629,0,9.162,1.361,13.474,4.045l0.25,0.155V36.329z M1.059,4.771v29.591
		c4.15-2.311,8.45-3.481,12.796-3.481c6.148,0,10.674,2.317,12.471,3.414V4.791c-4.066-2.477-8.326-3.732-12.665-3.732
		C6.993,1.059,2.116,4.063,1.059,4.771z"/>
	<path fill="#D3000F" d="M26.617,36.331V4.201l0.249-0.155C31.179,1.361,35.712,0,40.342,0c7.885,0,13.223,3.904,13.447,4.07
		l0.213,0.159v31.98l-0.801-0.476c-4.23-2.517-8.621-3.793-13.055-3.793c-7.536,0-12.634,3.725-12.685,3.763L26.617,36.331z
		 M40.146,30.881c4.346,0,8.646,1.17,12.797,3.481V4.771c-1.057-0.708-5.934-3.713-12.602-3.713c-4.339,0-8.599,1.255-12.666,3.732
		v29.505C29.474,33.198,33.998,30.881,40.146,30.881z"/>
	<path fill="#D3000F" d="M0.221,37.876l0.069-2.75l0.116-0.085c0.054-0.04,5.542-3.982,13.263-3.982
		c4.751,0,9.357,1.464,13.688,4.353l-0.284,0.509c-0.063-0.029-6.378-2.892-13.511-2.892c-5.188,0-9.508,1.482-12.84,4.406
		L0.221,37.876z M0.867,35.434l-0.029,1.138c3.369-2.74,7.646-4.128,12.725-4.128c4.148,0,8.023,0.951,10.597,1.772
		c-3.375-1.708-6.892-2.572-10.49-2.572C6.759,31.644,1.688,34.877,0.867,35.434z"/>
	<path fill="#D3000F" d="M53.781,37.876l-0.502-0.441c-3.332-2.924-7.652-4.406-12.84-4.406c-7.138,0-13.448,2.863-13.512,2.892
		l-0.284-0.509c4.332-2.888,8.938-4.353,13.69-4.353c7.719,0,13.207,3.943,13.262,3.982l0.117,0.085L53.781,37.876z M40.439,32.444
		c5.078,0,9.355,1.388,12.725,4.128l-0.029-1.138c-0.82-0.556-5.891-3.79-12.801-3.79c-3.601,0-7.117,0.864-10.492,2.572
		C32.415,33.395,36.29,32.444,40.439,32.444z"/>
</g>
</svg>
