<?xml version="1.0" encoding="utf-8"?>
<!-- Generator: Adobe Illustrator 16.0.0, SVG Export Plug-In . SVG Version: 6.00 Build 0)  -->
<!DOCTYPE svg PUBLIC "-//W3C//DTD SVG 1.1//EN" "http://www.w3.org/Graphics/SVG/1.1/DTD/svg11.dtd">
<svg version="1.1" id="Capa_1" xmlns="http://www.w3.org/2000/svg" xmlns:xlink="http://www.w3.org/1999/xlink" x="0px" y="0px"
	 width="43.899px" height="48.059px" viewBox="0 0 43.899 48.059" enable-background="new 0 0 43.899 48.059" xml:space="preserve">
<path fill-rule="evenodd" clip-rule="evenodd" fill="#D3000F" d="M42.667,16.194c-1.901-1.043-2.965,0.672-3.601,1.693
	c-1.747,2.783-3.518,5.516-5.33,8.303c-0.195,0.303-0.423,0.59-0.705,0.939c0.033-0.469,0.209-0.83,0.392-1.205l0.115-0.242
	c1.827-4.018,3.692-8.02,5.558-12.021l1.039-2.23c0.044-0.094,0.095-0.186,0.145-0.277c0.083-0.15,0.165-0.301,0.228-0.457
	c0.458-1.127,0.499-2.244,0.113-3.066c-0.272-0.58-0.736-0.988-1.343-1.182c-1.603-0.506-2.864,0.156-3.738,1.977
	c-0.541,1.121-1.063,2.254-1.586,3.387c-0.547,1.184-1.094,2.367-1.662,3.541c-0.035,0.074-0.071,0.148-0.106,0.221
	c0.906-2.064,1.814-4.129,2.73-6.189c0.326-0.734,0.677-1.457,1.026-2.18c0.412-0.85,0.823-1.699,1.197-2.568
	c0.771-1.807,0.373-3.184-1.117-3.879c-1.455-0.688-2.962-0.131-3.843,1.412c-1.442,2.541-2.762,5.074-3.92,7.529
	c-0.866,1.824-1.68,3.705-2.468,5.525c-0.479,1.109-0.959,2.217-1.453,3.322c-0.071,0.162-0.167,0.322-0.287,0.506
	c0.039-0.684,0.184-1.225,0.346-1.711c0.363-1.084,0.717-2.17,1.069-3.258c1.02-3.137,2.072-6.381,3.369-9.473
	c0.486-1.16,1.301-3.104-0.787-4.285c-0.634-0.359-1.329-0.422-2.01-0.18c-0.923,0.326-1.721,1.203-2.19,2.404
	c-1.423,3.596-2.82,7.199-4.218,10.803c-0.717,1.846-1.434,3.693-2.154,5.541c-0.923,2.383-2.167,4.662-3.698,6.777
	c-0.6,0.83-1.157,1.25-1.657,1.25c-0.005,0-0.009,0-0.013,0c-0.517-0.008-1.086-0.465-1.693-1.359
	c-0.59-0.857-0.987-1.869-1.252-3.188c-0.481-2.4-1.361-4.441-2.688-6.24c-0.763-1.037-1.675-1.752-2.712-2.121
	c-1.183-0.416-2.253-0.248-3.102,0.488c-1.002,0.863-0.644,1.893-0.356,2.717c0.259,0.748,0.494,1.504,0.73,2.26
	c0.56,1.795,1.138,3.65,2.023,5.381c0.814,1.594,1.193,3.355,1.457,4.869c0.434,2.479,1.036,4.883,1.622,7.111
	c0.063,0.24,0.308,0.379,0.552,0.32c0.24-0.063,0.385-0.311,0.321-0.551c-0.582-2.209-1.179-4.592-1.606-7.037
	c-0.274-1.58-0.673-3.424-1.542-5.123c-0.851-1.664-1.417-3.48-1.966-5.238c-0.238-0.766-0.478-1.529-0.766-2.363
	c-0.267-0.766-0.393-1.221,0.121-1.664c0.605-0.525,1.328-0.629,2.209-0.32c0.863,0.309,1.633,0.916,2.287,1.807
	c1.247,1.689,2.074,3.615,2.529,5.883c0.29,1.441,0.732,2.561,1.392,3.52c0.792,1.166,1.586,1.738,2.425,1.752
	c0.822-0.008,1.616-0.52,2.414-1.623c1.577-2.178,2.858-4.525,3.809-6.979c0.721-1.848,1.438-3.695,2.154-5.543
	c1.397-3.602,2.794-7.203,4.217-10.799c0.375-0.957,0.978-1.645,1.652-1.885c0.432-0.154,0.856-0.115,1.264,0.115
	c1.182,0.67,1.07,1.549,0.399,3.15c-1.312,3.127-2.37,6.389-3.396,9.545c-0.352,1.084-0.704,2.168-1.066,3.25
	c-0.288,0.863-0.528,1.877-0.334,3.426c0.022,0.188,0.16,0.342,0.345,0.385s0.375-0.033,0.479-0.191
	c0.177-0.268,0.334-0.492,0.472-0.689c0.281-0.402,0.504-0.719,0.66-1.074c0.494-1.105,0.976-2.217,1.456-3.328
	c0.785-1.814,1.596-3.689,2.455-5.5c1.149-2.436,2.458-4.947,3.889-7.469c0.243-0.424,1.155-1.758,2.676-1.041
	c0.376,0.176,1.522,0.711,0.671,2.707c-0.368,0.855-0.774,1.693-1.18,2.531c-0.354,0.73-0.709,1.463-1.039,2.205
	c-1.257,2.828-2.499,5.66-3.742,8.496l-2.064,4.701c-0.099,0.225,0,0.486,0.223,0.59l0.094,0.043
	c0.121,0.057,0.243,0.113,0.359,0.174c0.108,0.057,0.233,0.068,0.348,0.031c0.115-0.037,0.211-0.119,0.266-0.229l0.925-1.836
	c0.879-1.742,1.759-3.486,2.605-5.24c0.571-1.18,1.12-2.369,1.669-3.559c0.521-1.127,1.041-2.254,1.579-3.371
	c0.678-1.408,1.499-1.871,2.653-1.508c0.365,0.115,0.633,0.352,0.798,0.703c0.279,0.596,0.231,1.449-0.133,2.346
	c-0.05,0.125-0.116,0.242-0.181,0.359c-0.061,0.111-0.121,0.221-0.173,0.332l-1.039,2.23c-1.865,4.004-3.732,8.01-5.56,12.027
	l-0.107,0.223c-0.32,0.66-0.719,1.482-0.319,2.84c0.048,0.162,0.183,0.285,0.35,0.316c0.164,0.029,0.336-0.035,0.44-0.168
	c0.212-0.275,0.404-0.514,0.579-0.73c0.319-0.396,0.596-0.738,0.833-1.105c1.814-2.791,3.587-5.525,5.338-8.316
	c0.867-1.391,1.417-1.92,2.403-1.379c0.603,0.326,1.186,0.943,0.333,2.822c-0.134,0.305-0.31,0.619-0.554,0.99
	c-3.785,5.855-6.447,12.357-9.021,18.643l-0.101,0.244c-2.688,6.56-6.995,8.769-13.22,6.736c-0.793-0.152-2.441-0.713-2.47-1.474
	c-0.054-1.455,1.73-1.934,1.859-1.971c0.306-0.121,7.528-3.006,10.905-8.115c1.195-1.813,1.623-3.381,1.271-4.662
	c-0.346-1.256-1.325-1.74-1.373-1.764c-0.063-0.029-1.557-0.707-3.139,0.018c-0.564,0.26-1.062,0.662-1.486,1.203
	c-0.067-0.684-0.277-1.264-0.632-1.74c-0.828-1.113-2.148-1.24-2.463-1.254c-0.222-0.055-0.885-0.154-1.675,0.281
	c-1.112,0.615-1.947,2.006-2.482,4.131c-0.826,3.268,2.146,8.451,3.077,9.965c-1.341,0.703-2.272,1.076-2.278,1.08
	c-0.889,0.225-2.551,1.111-2.486,2.863c0.063,1.673,2.881,2.263,3.146,2.31c1.557,0.51,3.012,0.764,4.365,0.764
	c4.401,0,7.727-2.688,9.916-8.029l0.1-0.244c2.559-6.248,5.204-12.709,8.942-18.49c0.271-0.412,0.469-0.77,0.622-1.117
	C44.259,18.267,44.014,16.927,42.667,16.194z"/>
</svg>
