<?xml version="1.0" encoding="utf-8"?>
<!-- Generator: Adobe Illustrator 16.0.0, SVG Export Plug-In . SVG Version: 6.00 Build 0)  -->
<!DOCTYPE svg PUBLIC "-//W3C//DTD SVG 1.1//EN" "http://www.w3.org/Graphics/SVG/1.1/DTD/svg11.dtd">
<svg version="1.1" id="Capa_1" xmlns="http://www.w3.org/2000/svg" xmlns:xlink="http://www.w3.org/1999/xlink" x="0px" y="0px"
	 width="43.899px" height="48.059px" viewBox="0 0 43.899 48.059" enable-background="new 0 0 43.899 48.059" xml:space="preserve">
<path fill="#D3000F" d="M23.813,48.059c-1.354,0-2.809-0.255-4.365-0.764c-0.266-0.048-3.083-0.637-3.146-2.313
	c-0.065-1.75,1.598-2.638,2.486-2.863c0.018-0.011,7.209-2.886,10.427-7.755c1.024-1.552,1.425-2.902,1.159-3.905
	c-0.229-0.862-0.87-1.195-0.897-1.209l0,0c-0.001,0-1.188-0.526-2.382,0.029c-0.965,0.449-1.694,1.472-2.171,3.043
	c-0.019,0.067-0.039,0.135-0.059,0.203c-0.072,0.236-0.32,0.371-0.559,0.303c-0.238-0.069-0.375-0.317-0.308-0.556
	c0.019-0.069,0.039-0.137,0.06-0.205c0.458-1.62,0.402-2.833-0.167-3.605c-0.648-0.88-1.8-0.9-1.812-0.9
	c-0.046,0-0.094-0.008-0.137-0.022c-0.012-0.003-0.474-0.13-1.062,0.208c-0.599,0.345-1.436,1.24-2.017,3.547
	c-0.856,3.383,2.34,7.966,2.373,8.012c0.144,0.204,0.095,0.485-0.108,0.629c-0.204,0.143-0.486,0.095-0.629-0.108
	c-0.142-0.201-3.468-4.967-2.51-8.754c0.535-2.125,1.371-3.515,2.483-4.131c0.786-0.435,1.451-0.335,1.675-0.281
	c0.313,0.014,1.634,0.141,2.463,1.254c0.354,0.477,0.564,1.058,0.631,1.74c0.425-0.54,0.922-0.942,1.487-1.202
	c1.577-0.724,3.077-0.047,3.139-0.019c0.048,0.023,1.027,0.509,1.373,1.764c0.353,1.281-0.074,2.85-1.271,4.662
	c-3.376,5.109-10.598,7.994-10.904,8.115c-0.129,0.037-1.915,0.516-1.861,1.972c0.029,0.76,1.677,1.321,2.47,1.474
	c6.226,2.034,10.532-0.175,13.22-6.736l0.1-0.244c2.575-6.286,5.236-12.787,9.022-18.643c0.244-0.372,0.419-0.686,0.554-0.991
	c0.853-1.879,0.27-2.495-0.333-2.822c-0.982-0.538-1.536-0.011-2.404,1.38c-1.723,2.747-3.508,5.501-5.337,8.315
	c-0.237,0.367-0.513,0.709-0.833,1.106c-0.175,0.216-0.367,0.455-0.58,0.73c-0.104,0.134-0.274,0.199-0.44,0.167
	s-0.302-0.153-0.35-0.316c-0.399-1.357,0-2.179,0.32-2.839l0.107-0.223c1.845-4.053,3.727-8.092,5.608-12.131l0.991-2.126
	c0.052-0.112,0.112-0.222,0.172-0.332c0.065-0.118,0.131-0.236,0.181-0.361c0.364-0.896,0.412-1.75,0.133-2.345
	c-0.165-0.351-0.433-0.588-0.798-0.704c-1.156-0.365-1.975,0.098-2.652,1.507c-0.542,1.123-1.065,2.255-1.588,3.389
	c-0.546,1.184-1.093,2.368-1.661,3.54c-0.847,1.754-1.727,3.498-2.605,5.241l-0.925,1.836c-0.054,0.108-0.15,0.19-0.265,0.228
	c-0.115,0.037-0.241,0.025-0.348-0.03c-0.113-0.059-0.23-0.114-0.348-0.168l-0.105-0.049c-0.222-0.104-0.32-0.366-0.222-0.59
	l2.004-4.566c1.263-2.879,2.524-5.758,3.801-8.63c0.33-0.743,0.684-1.475,1.039-2.206c0.406-0.838,0.812-1.675,1.18-2.529
	c0.852-1.997-0.294-2.532-0.671-2.708c-1.52-0.716-2.432,0.616-2.675,1.042c-1.436,2.531-2.744,5.044-3.889,7.469
	c-0.859,1.811-1.67,3.686-2.455,5.499c-0.481,1.111-0.962,2.223-1.457,3.329c-0.156,0.354-0.378,0.671-0.66,1.074
	c-0.138,0.197-0.295,0.421-0.472,0.689c-0.104,0.158-0.293,0.235-0.479,0.191c-0.184-0.043-0.321-0.196-0.345-0.384
	c-0.194-1.554,0.046-2.565,0.334-3.427c0.362-1.081,0.714-2.166,1.067-3.25c1.024-3.155,2.084-6.417,3.395-9.543
	c0.671-1.602,0.783-2.482-0.399-3.152c-0.407-0.23-0.832-0.269-1.264-0.115c-0.675,0.24-1.277,0.927-1.652,1.885
	c-1.438,3.633-2.849,7.271-4.26,10.909l-2.11,5.433c-0.953,2.457-2.235,4.806-3.81,6.979c-0.798,1.104-1.595,1.638-2.414,1.622
	c-0.839-0.013-1.632-0.585-2.425-1.752c-0.659-0.958-1.102-2.077-1.392-3.518c-0.456-2.269-1.283-4.193-2.529-5.884
	c-0.654-0.89-1.424-1.498-2.288-1.806c-0.877-0.31-1.603-0.206-2.208,0.32c-0.514,0.443-0.388,0.897-0.121,1.663
	c0.289,0.833,0.527,1.599,0.766,2.364c0.548,1.757,1.115,3.575,1.966,5.237c0.868,1.701,1.267,3.545,1.542,5.124
	c0.428,2.446,1.025,4.828,1.606,7.037c0.063,0.241-0.081,0.488-0.322,0.551c-0.238,0.061-0.488-0.08-0.551-0.322
	c-0.586-2.229-1.188-4.632-1.622-7.111c-0.264-1.513-0.643-3.275-1.457-4.869c-0.886-1.731-1.464-3.586-2.024-5.379
	c-0.236-0.756-0.472-1.513-0.73-2.26c-0.288-0.826-0.646-1.854,0.356-2.718c0.849-0.736,1.92-0.905,3.102-0.488
	c1.038,0.37,1.95,1.083,2.712,2.121c1.326,1.798,2.205,3.84,2.687,6.241c0.265,1.317,0.663,2.33,1.251,3.187
	c0.608,0.895,1.177,1.352,1.693,1.359c0.507-0.005,1.065-0.413,1.67-1.249c1.53-2.112,2.774-4.392,3.7-6.778l2.11-5.432
	C21,9.823,22.411,6.183,23.849,2.55c0.469-1.2,1.268-2.077,2.189-2.405c0.68-0.243,1.375-0.181,2.011,0.18
	c2.087,1.182,1.273,3.125,0.787,4.286c-1.296,3.092-2.35,6.336-3.369,9.474c-0.353,1.087-0.706,2.174-1.069,3.257
	c-0.162,0.485-0.308,1.025-0.346,1.71c0.12-0.183,0.216-0.344,0.288-0.507c0.495-1.104,0.974-2.213,1.454-3.321
	c0.787-1.82,1.602-3.703,2.467-5.526c1.154-2.444,2.473-4.978,3.92-7.529c0.883-1.543,2.392-2.096,3.843-1.412
	c1.491,0.695,1.888,2.074,1.117,3.88c-0.374,0.868-0.785,1.717-1.197,2.567c-0.35,0.723-0.7,1.445-1.026,2.179
	c-0.916,2.061-1.823,4.124-2.729,6.188c0.035-0.073,0.07-0.146,0.105-0.218c0.566-1.168,1.11-2.347,1.654-3.525
	c0.525-1.138,1.051-2.276,1.595-3.402c0.873-1.819,2.13-2.485,3.738-1.976c0.606,0.192,1.07,0.601,1.342,1.181
	c0.386,0.822,0.345,1.94-0.113,3.066c-0.063,0.157-0.145,0.308-0.228,0.458c-0.05,0.092-0.101,0.183-0.145,0.277l-0.991,2.127
	c-1.88,4.036-3.762,8.073-5.606,12.125l-0.115,0.241c-0.182,0.375-0.358,0.737-0.391,1.206c0.282-0.35,0.509-0.636,0.704-0.939
	c1.829-2.813,3.611-5.563,5.33-8.304c0.639-1.021,1.708-2.732,3.602-1.693c1.347,0.731,1.591,2.072,0.724,3.982
	c-0.152,0.348-0.351,0.704-0.622,1.116c-3.738,5.783-6.384,12.244-8.942,18.492l-0.1,0.244
	C31.539,45.372,28.213,48.058,23.813,48.059z"/>
</svg>
