<?xml version="1.0" encoding="utf-8"?>
<!-- Generator: Adobe Illustrator 16.0.0, SVG Export Plug-In . SVG Version: 6.00 Build 0)  -->
<!DOCTYPE svg PUBLIC "-//W3C//DTD SVG 1.1//EN" "http://www.w3.org/Graphics/SVG/1.1/DTD/svg11.dtd">
<svg version="1.1" id="Capa_1" xmlns="http://www.w3.org/2000/svg" xmlns:xlink="http://www.w3.org/1999/xlink" x="0px" y="0px"
	 width="30.627px" height="30.629px" viewBox="0 0 30.627 30.629" enable-background="new 0 0 30.627 30.629" xml:space="preserve">
<g>
	<path fill="#AB0017" d="M16.365,11.348c0-0.553,0.365-0.682,0.625-0.682h1.582V8.237l-2.182-0.009c-2.42,0-2.969,1.813-2.969,2.971
		v1.618h-1.4v2.502h1.4V22.4h2.943v-7.081h1.986l0.256-2.499h-2.242V11.348z"/>
	<path fill="#AB0017" d="M15.314,0C6.869,0,0,6.871,0,15.315c0,8.443,6.869,15.313,15.314,15.313c8.443,0,15.313-6.87,15.313-15.313
		C30.627,6.871,23.758,0,15.314,0z M15.314,28.932c-7.521,0-13.617-6.098-13.617-13.617c0-7.521,6.096-13.617,13.617-13.617
		c7.52,0,13.617,6.097,13.617,13.617C28.932,22.834,22.834,28.932,15.314,28.932z"/>
</g>
</svg>
