<?xml version="1.0" encoding="utf-8"?>
<!-- Generator: Adobe Illustrator 16.0.0, SVG Export Plug-In . SVG Version: 6.00 Build 0)  -->
<!DOCTYPE svg PUBLIC "-//W3C//DTD SVG 1.1//EN" "http://www.w3.org/Graphics/SVG/1.1/DTD/svg11.dtd">
<svg version="1.1" id="Capa_1" xmlns="http://www.w3.org/2000/svg" xmlns:xlink="http://www.w3.org/1999/xlink" x="0px" y="0px"
	 width="54.002px" height="37.876px" viewBox="0 0 54.002 37.876" enable-background="new 0 0 54.002 37.876" xml:space="preserve">
<g>
	<path fill="#D3000F" d="M26.332,4.12c-4.238-2.678-8.677-4.037-13.2-4.037C6.164,0.083,1.073,3.353,0,4.101v31.953
		c1.813-1.157,6.672-3.813,13.145-3.813c1.429,0,2.843,0.146,4.244,0.407c4.354,0.73,7.521,2.457,8.943,3.364V4.12z"/>
	<path fill="#D3000F" d="M54.002,36.054V4.101c-1.073-0.748-6.163-4.017-13.131-4.017c-4.522,0-8.962,1.358-13.2,4.037v31.892
		c1.42-0.906,4.583-2.63,8.931-3.362c1.404-0.262,2.821-0.409,4.253-0.409C47.331,32.24,52.19,34.896,54.002,36.054z"/>
	<path fill="#D3000F" d="M13.034,33.733c2.904,0,5.651,0.447,7.95,1.008c-1.168-0.433-2.351-0.754-3.544-0.99
		c-1.269-0.229-2.642-0.369-4.103-0.369c-4.509,0-8.978,1.326-13.29,3.922l-0.017,0.63C3.515,35.146,7.883,33.733,13.034,33.733z"/>
	<path fill="#D3000F" d="M17.439,33.752c-1.417-0.28-2.849-0.433-4.294-0.433c-6.918,0-12.032,3.25-13.099,3.986l0,0
		c4.313-2.596,8.781-3.922,13.29-3.922C14.797,33.383,16.17,33.523,17.439,33.752z"/>
	<path fill="#D3000F" d="M40.97,33.733c5.149,0,9.517,1.413,13.001,4.201l-0.015-0.63c-4.31-2.597-8.779-3.922-13.289-3.922
		c-1.463,0-2.839,0.141-4.11,0.37c-1.191,0.236-2.373,0.557-3.538,0.989C35.318,34.181,38.065,33.733,40.97,33.733z"/>
	<path fill="#D3000F" d="M53.956,37.305L53.956,37.305c-1.071-0.735-6.196-3.986-13.101-3.986c-1.447,0-2.88,0.154-4.299,0.434
		c1.271-0.229,2.647-0.37,4.11-0.37C45.177,33.383,49.646,34.708,53.956,37.305z"/>
</g>
</svg>
