<?xml version="1.0" encoding="utf-8"?>
<!-- Generator: Adobe Illustrator 16.0.0, SVG Export Plug-In . SVG Version: 6.00 Build 0)  -->
<!DOCTYPE svg PUBLIC "-//W3C//DTD SVG 1.1//EN" "http://www.w3.org/Graphics/SVG/1.1/DTD/svg11.dtd">
<svg version="1.1" id="Capa_1" xmlns="http://www.w3.org/2000/svg" xmlns:xlink="http://www.w3.org/1999/xlink" x="0px" y="0px"
	 width="38.19px" height="73.484px" viewBox="0 0 38.19 73.484" enable-background="new 0 0 38.19 73.484" xml:space="preserve">
<g>
	<path fill="#D3000F" d="M34.727,21.584c-1.515-1.873-4.806-2.46-7.439-2.951c-1.286-0.225-3.256-0.582-3.462-0.926
		c-0.012-0.295,0.521-0.799,1.031-1.299c0.701-0.641,1.576-1.48,2.285-2.693c1.314-2.203,2.004-6.867-1.432-10.737
		C24.102,1.125,21.492,0,18.895,0c-2.479,0-4.772,0.979-6.688,2.865c-3.85,3.797-2.76,8.622-1.512,10.875
		c0.762,1.364,1.629,2.136,2.252,2.732c0.681,0.586,0.903,0.813,0.854,1.121c-0.221,0.428-2.191,0.834-3.509,1.127
		c-2.22,0.453-4.731,0.99-6.122,2.207c-3.922,3.408-5.219,21.631-3.284,24.686c0.64,1.033,1.898,1.708,3.161,1.708
		c1.035,0,1.949-0.448,2.573-1.221c1.026-1.307,1.862-5.04,2.515-7.562c-0.271,2.714-0.683,7.2-1.055,10.346
		C6.993,57.963,5.857,67.4,6.352,69.848c0.426,2.078,2.395,3.6,4.682,3.6c1.914,0,3.618-1.1,4.521-2.887
		c2.231-4.35,2.815-10.084,3.185-13.87c0.07-0.743,0.156-1.548,0.238-2.229c0.241,1.156,0.477,2.706,0.705,4.137
		c0.699,4.342,1.567,9.744,2.803,12.164c0.889,1.703,2.52,2.723,4.41,2.723c2.275,0,4.187-1.5,4.643-3.627
		c0.454-2.232-0.472-11.273-1.366-20.039c-0.313-2.98-1.036-8.016-1.292-10.847c0.551,2.161,1.601,5.991,2.455,7.136
		c0.624,0.84,1.533,1.277,2.596,1.277c1.828,0,3.523-1.383,3.746-3.084C38.506,38.279,38.813,26.676,34.727,21.584z M5.092,22.019
		c1.108-0.98,3.449-1.488,5.504-1.907c2.303-0.497,4.036-0.861,4.51-1.887c2.061-0.125,4.326,0.199,4.326,0.199
		s1.104-7.107-0.193-7.901c-0.848-0.503-2.69,1.774-4.813-0.542c-0.992-1.064-0.71-3.291,0.558-4.178
		c2.271-1.602,3.546,0.805,4.371,0.028c0.559-0.488,0.613-2.479,0.523-4.345c1.847,0.257,3.633,1.146,4.771,2.418
		c3.268,3.723,2.036,7.799,1.275,9.061c-0.61,1.064-1.381,1.796-2.063,2.42c-0.788,0.779-1.489,1.45-1.462,2.357
		c0.015,0.387,0.172,0.709,0.453,0.979c-1.714-0.045-3.26-0.297-3.26-0.297s-0.926,7.221,0.431,7.805
		c0.823,0.367,2.097-1.483,4.325-0.123c1.22,0.768,2.006,3.271,0.199,4.64c-2.261,1.726-3.67-0.429-4.667,0.104
		c-1.079,0.577-0.236,7.501-0.236,7.501s6.341-1.053,7.788,0.801c0.13,0.168,0.226,0.292,0.318,0.439
		c0.202,2.434,0.534,5.801,1.01,10.376c0.095,1.044,0.214,2.11,0.324,3.204c-0.479-0.047-1.002,0.12-1.555,0.61
		c-1.527,1.325,0.275,3.233-0.797,4.876c-0.73,1.178-3.475,1.197-5.418,1.051c-0.085-0.434-0.151-0.904-0.23-1.324
		c-0.52-3.212-0.801-4.934-1.113-5.83c-0.102-0.844-0.456-1.451-0.813-1.69c-0.847-0.512-2.675,1.749-4.819-0.55
		c-0.976-1.055-0.702-3.287,0.571-4.17c2.279-1.6,3.538,0.797,4.38,0.02c1.061-0.939,0.271-7.808,0.271-7.808
		s-6.499,0.782-7.791-0.651c-1.337-1.424,0.302-3.578-0.755-4.84c-0.596-0.699-1.798-1.396-3.166-0.211
		c-1.522,1.326,0.291,3.233-0.79,4.882c-0.711,1.144-3.62,1.195-5.624,1.094C1.584,32.466,2.886,23.933,5.092,22.019z
		 M14.299,69.908c-0.683,1.338-1.875,2.09-3.266,2.09c-1.39,0-2.961-0.811-3.287-2.436c-0.183-0.904-0.08-3.141,0.16-6
		c0.027,0.047,0.075,0.096,0.107,0.17c1.125,1.467,2.822,0.779,3.334,0.121c1.398-1.768-0.849-3.537,0.938-5.037
		c0.905-0.744,3.142-0.793,4.881-0.73C16.791,61.672,16.127,66.35,14.299,69.908z M36.258,44.108
		c-0.129,0.993-1.219,1.858-2.328,1.858c-0.432,0-1.011-0.141-1.474-0.721c-0.311-0.43-0.59-1.02-0.867-1.728
		c0.814-1.655-0.979-3.267,0.671-4.636c0.842-0.7,2.805-0.818,4.475-0.745C36.661,40.426,36.479,42.528,36.258,44.108z"/>
</g>
</svg>
