<?xml version="1.0" encoding="utf-8"?>
<!-- Generator: Adobe Illustrator 16.0.0, SVG Export Plug-In . SVG Version: 6.00 Build 0)  -->
<!DOCTYPE svg PUBLIC "-//W3C//DTD SVG 1.1//EN" "http://www.w3.org/Graphics/SVG/1.1/DTD/svg11.dtd">
<svg version="1.1" id="Capa_1" xmlns="http://www.w3.org/2000/svg" xmlns:xlink="http://www.w3.org/1999/xlink" x="0px" y="0px"
	 width="30.627px" height="30.629px" viewBox="0 0 30.627 30.629" enable-background="new 0 0 30.627 30.629" xml:space="preserve">
<path fill="#AB0017" d="M24.822,10.025H5.805c-0.276,0-0.5,0.224-0.5,0.5v9.578c0,0.277,0.224,0.5,0.5,0.5h19.018
	c0.276,0,0.5-0.223,0.5-0.5v-9.578C25.322,10.249,25.099,10.025,24.822,10.025z M23.554,11.025l-8.321,5.744l-8.174-5.744H23.554z
	 M6.305,11.717l5.31,3.731l-5.31,3.957V11.717z M7.713,19.603l4.763-3.549l2.467,1.733c0.087,0.061,0.188,0.092,0.288,0.092
	c0.099,0,0.198-0.029,0.284-0.089l2.515-1.736l4.714,3.549H7.713z M24.322,19.542l-5.425-4.087l5.425-3.744V19.542z"/>
<path fill="#AB0017" d="M15.313,0C6.869,0,0,6.871,0,15.315c0,8.443,6.869,15.314,15.313,15.314s15.313-6.871,15.313-15.314
	C30.627,6.871,23.758,0,15.313,0z M15.313,28.932c-7.521,0-13.617-6.096-13.617-13.618c0-7.521,6.097-13.617,13.617-13.617
	s13.617,6.097,13.617,13.617C28.931,22.836,22.834,28.932,15.313,28.932z"/>
</svg>
