<?xml version="1.0" encoding="utf-8"?>
<!-- Generator: Adobe Illustrator 16.0.0, SVG Export Plug-In . SVG Version: 6.00 Build 0)  -->
<!DOCTYPE svg PUBLIC "-//W3C//DTD SVG 1.1//EN" "http://www.w3.org/Graphics/SVG/1.1/DTD/svg11.dtd">
<svg version="1.1" id="Capa_1" xmlns="http://www.w3.org/2000/svg" xmlns:xlink="http://www.w3.org/1999/xlink" x="0px" y="0px"
	 width="84.374px" height="31.08px" viewBox="0 0 84.374 31.08" enable-background="new 0 0 84.374 31.08" xml:space="preserve">
<g>
	<path fill="#D3000F" d="M22.376,10.45c0,1.368-0.23,2.638-0.688,3.817c-0.449,1.178-1.107,2.192-1.953,3.037
		c-0.84,0.82-1.869,1.486-3.073,1.971c-1.202,0.473-2.521,0.701-3.991,0.701H5.677v10.658H0V0.814h12.536
		c1.545,0,2.936,0.252,4.162,0.685c1.25,0.47,2.283,1.122,3.098,1.956c0.838,0.809,1.471,1.825,1.908,3.018
		C22.159,7.667,22.376,9.004,22.376,10.45z M5.677,5.547v9.791H12.5c1.317,0,2.643-0.729,3.375-1.592
		c0.63-0.758,1.11-1.773,1.11-3.296c0-1.528-0.488-2.538-1.11-3.312c-0.829-1.01-2.058-1.592-3.375-1.592H5.677z"/>
	<path fill="#D3000F" d="M31.345,30.634h-5.67V0.814h5.67V30.634z"/>
	<path fill="#D3000F" d="M57.881,30.634H35.813V0.814h21.784v4.732H41.489v7.484h13.734v4.707H41.489v8.174h16.392V30.634z"/>
	<path fill="#D3000F" d="M72.051,0c1.719,0,3.25,0.224,4.59,0.693c1.309,0.436,2.449,1.057,3.357,1.801
		c0.916,0.747,1.664,1.643,2.225,2.596c0.545,0.991,0.904,2.007,1.082,3.068l-5.502,1.378c-0.078-1.24-0.619-2.25-1.623-3.063
		c-1.012-0.809-2.383-1.207-4.129-1.207c-0.736,0-1.457,0.088-2.156,0.206c-0.699,0.152-1.33,0.357-1.873,0.651
		c-0.541,0.299-0.984,0.652-1.297,1.064c-0.303,0.45-0.465,0.955-0.465,1.516c0,1.041,0.521,1.789,1.572,2.295
		c1.043,0.496,2.697,0.988,5.002,1.452c1.77,0.351,3.363,0.735,4.771,1.157c1.416,0.463,2.633,1.017,3.633,1.702
		c1.004,0.697,1.771,1.55,2.334,2.583c0.535,1.037,0.801,2.305,0.801,3.822c0,1.424-0.275,2.734-0.854,3.898
		c-0.574,1.139-1.396,2.143-2.471,2.967c-1.068,0.797-2.377,1.426-3.875,1.842c-1.523,0.449-3.232,0.658-5.123,0.658
		c-1.346,0-2.672-0.176-4.008-0.52c-1.336-0.342-2.566-0.871-3.67-1.57c-1.127-0.695-2.074-1.586-2.863-2.666
		c-0.783-1.111-1.291-2.387-1.531-3.887c1.102-0.24,2.148-0.52,3.17-0.758c1.023-0.273,1.799-0.469,2.371-0.617
		c0.064,0.836,0.293,1.543,0.703,2.168c0.43,0.582,0.947,1.088,1.553,1.457c0.621,0.406,1.299,0.684,2.045,0.891
		c0.756,0.213,1.494,0.297,2.23,0.297c0.805,0,1.602-0.059,2.408-0.205c0.811-0.146,1.521-0.371,2.141-0.707
		c0.635-0.33,1.143-0.738,1.525-1.236c0.381-0.506,0.6-1.129,0.6-1.846c0-0.463-0.121-0.875-0.332-1.268
		c-0.23-0.416-0.602-0.783-1.146-1.121c-0.541-0.328-1.256-0.613-2.156-0.906c-0.918-0.299-2.045-0.553-3.424-0.828
		c-1.367-0.246-2.732-0.568-4.066-0.945c-1.318-0.411-2.5-0.939-3.531-1.594c-1.035-0.664-1.881-1.529-2.525-2.575
		c-0.633-1.038-0.955-2.376-0.955-3.969c0-1.313,0.262-2.458,0.826-3.547c0.537-1.052,1.309-1.958,2.307-2.704
		c1.006-0.777,2.213-1.354,3.611-1.801C68.737,0.21,70.309,0,72.051,0z"/>
</g>
</svg>
