<?xml version="1.0" encoding="utf-8"?>
<!-- Generator: Adobe Illustrator 16.0.0, SVG Export Plug-In . SVG Version: 6.00 Build 0)  -->
<!DOCTYPE svg PUBLIC "-//W3C//DTD SVG 1.1//EN" "http://www.w3.org/Graphics/SVG/1.1/DTD/svg11.dtd">
<svg version="1.1" id="Capa_1" xmlns="http://www.w3.org/2000/svg" xmlns:xlink="http://www.w3.org/1999/xlink" x="0px" y="0px"
	 width="98.903px" height="98.738px" viewBox="0 0 98.903 98.738" enable-background="new 0 0 98.903 98.738" xml:space="preserve">
<circle fill-rule="evenodd" clip-rule="evenodd" fill="#D3000F" cx="49.452" cy="49.452" r="49.452"/>
<g>
	<rect x="9.138" y="47.385" fill="#FFFFFF" width="2.004" height="2.012"/>
	<polygon fill="#FFFFFF" points="9.478,50.511 9.138,57.344 9.138,60.187 11.142,60.187 11.142,57.338 10.802,50.511 	"/>
	<path fill="#FFFFFF" d="M22.652,50.78c-0.258-0.268-0.563-0.498-0.907-0.686c-0.34-0.186-0.704-0.347-1.081-0.477
		c-0.373-0.13-0.766-0.242-1.169-0.334c-0.396-0.09-0.783-0.174-1.161-0.255c-0.539-0.115-1-0.23-1.371-0.345
		c-0.357-0.11-0.647-0.235-0.86-0.372c-0.203-0.129-0.347-0.278-0.428-0.446c-0.084-0.171-0.127-0.381-0.127-0.626
		c0-0.549,0.23-0.974,0.703-1.298c0.48-0.33,1.182-0.497,2.086-0.497c1.853,0,2.832,0.707,2.993,2.161l0.012,0.111h1.854
		l-0.004-0.129c-0.018-0.6-0.153-1.15-0.403-1.636c-0.25-0.481-0.596-0.895-1.028-1.229c-0.431-0.333-0.949-0.591-1.539-0.769
		c-0.592-0.176-1.252-0.265-1.96-0.265c-0.674,0-1.3,0.089-1.861,0.266c-0.56,0.178-1.048,0.429-1.45,0.745
		c-0.404,0.317-0.723,0.702-0.948,1.146c-0.225,0.442-0.339,0.933-0.339,1.457c0,0.479,0.083,0.912,0.248,1.284
		c0.164,0.374,0.42,0.709,0.762,0.997c0.336,0.282,0.771,0.531,1.292,0.739c0.515,0.206,1.135,0.393,1.844,0.553
		c0.701,0.144,1.316,0.29,1.829,0.435c0.488,0.14,0.886,0.298,1.181,0.47c0.286,0.168,0.494,0.363,0.618,0.581
		c0.125,0.218,0.188,0.492,0.188,0.814c0,0.311-0.069,0.592-0.207,0.834c-0.138,0.244-0.337,0.457-0.592,0.631
		c-0.261,0.178-0.579,0.315-0.945,0.408c-0.369,0.096-0.789,0.145-1.248,0.145c-0.472,0-0.919-0.054-1.329-0.158
		c-0.407-0.104-0.772-0.267-1.086-0.487c-0.313-0.218-0.572-0.497-0.772-0.829c-0.199-0.332-0.321-0.731-0.362-1.185l-0.01-0.114
		h-1.838l0.003,0.129c0.018,0.637,0.146,1.231,0.381,1.767c0.235,0.538,0.584,1.008,1.04,1.395c0.453,0.388,1.025,0.692,1.7,0.906
		c0.672,0.213,1.465,0.321,2.357,0.321c0.684,0,1.324-0.098,1.903-0.289c0.583-0.193,1.092-0.464,1.515-0.805
		c0.425-0.344,0.763-0.758,1.003-1.234c0.239-0.477,0.361-1.006,0.361-1.572c0-0.489-0.076-0.925-0.227-1.295
		C23.121,51.375,22.913,51.051,22.652,50.78z"/>
	<path fill="#FFFFFF" d="M33.75,51.267c0,0.82-0.07,1.496-0.209,2.009c-0.136,0.503-0.335,0.902-0.593,1.187
		c-0.256,0.281-0.579,0.476-0.96,0.575c-0.395,0.105-0.855,0.158-1.369,0.158c-0.516,0-0.974-0.052-1.364-0.153
		c-0.38-0.098-0.705-0.289-0.965-0.567c-0.263-0.28-0.467-0.68-0.606-1.187c-0.142-0.514-0.213-1.194-0.213-2.021v-7.353h-1.911
		v7.381c0,0.411,0.014,0.846,0.042,1.292c0.029,0.445,0.099,0.88,0.208,1.291c0.111,0.419,0.276,0.816,0.491,1.182
		c0.217,0.372,0.519,0.701,0.896,0.979c0.375,0.276,0.847,0.498,1.404,0.66c0.554,0.16,1.233,0.241,2.019,0.241
		c0.99,0,1.82-0.13,2.468-0.385c0.654-0.257,1.18-0.635,1.564-1.124c0.381-0.486,0.652-1.088,0.803-1.786
		c0.15-0.688,0.226-1.479,0.226-2.35v-7.381H33.75V51.267z"/>
	<polygon fill="#FFFFFF" points="44.239,54.1 40.972,44.001 40.943,43.914 38.222,43.914 38.222,56.717 40.05,56.717 40.05,46.69 
		43.378,56.632 43.406,56.717 45.079,56.717 48.455,46.687 48.455,56.717 50.292,56.717 50.292,43.914 47.57,43.914 	"/>
	<path fill="#FFFFFF" d="M58.257,43.914h-1.97L51.44,56.547l-0.064,0.17h2.023l1.383-3.813h5.086l1.457,3.813h2.154l-5.191-12.725
		L58.257,43.914z M59.29,51.318h-3.963l1.931-5.325L59.29,51.318z"/>
	<polygon fill="#FFFFFF" points="63.54,45.658 67.668,45.658 67.668,56.717 69.579,56.717 69.579,45.658 73.735,45.658 
		73.735,43.914 63.54,43.914 	"/>
	<polygon fill="#FFFFFF" points="77.178,50.965 84.117,50.965 84.117,49.221 77.178,49.221 77.178,45.658 84.608,45.658 
		84.608,43.914 75.267,43.914 75.267,56.717 84.888,56.717 84.888,54.973 77.178,54.973 	"/>
	<rect x="87.698" y="44.369" fill="#FFFFFF" width="1.91" height="9.166"/>
	<rect x="87.577" y="54.621" fill="#FFFFFF" width="2.189" height="2.096"/>
</g>
</svg>
