<?xml version="1.0" encoding="utf-8"?>
<!-- Generator: Adobe Illustrator 16.0.0, SVG Export Plug-In . SVG Version: 6.00 Build 0)  -->
<!DOCTYPE svg PUBLIC "-//W3C//DTD SVG 1.1//EN" "http://www.w3.org/Graphics/SVG/1.1/DTD/svg11.dtd">
<svg version="1.1" id="Capa_1" xmlns="http://www.w3.org/2000/svg" xmlns:xlink="http://www.w3.org/1999/xlink" x="0px" y="0px"
	 width="30.627px" height="30.627px" viewBox="0 0 30.627 30.627" enable-background="new 0 0 30.627 30.627" xml:space="preserve">
<g>
	<path fill="#AB0017" d="M23.553,8.488c-0.691,0.41-1.457,0.707-2.271,0.867c-0.652-0.693-1.582-1.129-2.613-1.129
		c-1.975,0-3.578,1.602-3.578,3.578c0,0.281,0.033,0.553,0.094,0.814c-2.973-0.148-5.609-1.572-7.375-3.738
		C7.502,9.41,7.324,10.025,7.324,10.68c0,1.242,0.633,2.338,1.592,2.979c-0.586-0.018-1.139-0.18-1.621-0.447
		c0,0.016,0,0.029,0,0.045c0,1.734,1.234,3.179,2.871,3.509c-0.301,0.082-0.617,0.125-0.943,0.125c-0.23,0-0.455-0.021-0.674-0.064
		c0.457,1.422,1.777,2.457,3.344,2.484c-1.225,0.961-2.768,1.533-4.445,1.533c-0.287,0-0.572-0.018-0.852-0.051
		c1.582,1.016,3.463,1.607,5.484,1.607c6.58,0,10.18-5.451,10.18-10.181c0-0.154-0.004-0.309-0.01-0.463
		c0.699-0.504,1.305-1.135,1.785-1.852c-0.643,0.285-1.332,0.477-2.057,0.563C22.719,10.025,23.285,9.324,23.553,8.488z"/>
	<path fill="#AB0017" d="M15.313,0C6.869,0,0,6.869,0,15.314c0,8.443,6.869,15.313,15.313,15.313
		c8.445,0,15.314-6.869,15.314-15.313C30.627,6.869,23.758,0,15.313,0z M15.314,28.931c-7.521,0-13.617-6.098-13.617-13.617
		c0-7.521,6.096-13.618,13.617-13.618s13.617,6.098,13.617,13.618C28.932,22.833,22.836,28.931,15.314,28.931z"/>
</g>
</svg>
